<svg viewBox="0 0 300 160" fill="none" xmlns="http://www.w3.org/2000/svg">
  <defs>
    <linearGradient id="bg5" x1="0" y1="0" x2="300" y2="160" gradientUnits="userSpaceOnUse">
      <stop offset="0%" stop-color="#fdf4ff"/>
      <stop offset="100%" stop-color="#fae8ff"/>
    </linearGradient>
    <linearGradient id="line5" x1="50" y1="50" x2="250" y2="130" gradientUnits="userSpaceOnUse">
      <stop offset="0%" stop-color="#a855f7"/>
      <stop offset="100%" stop-color="#ec4899"/>
    </linearGradient>
    <linearGradient id="area5" x1="0" y1="0" x2="0" y2="1">
      <stop offset="0%" stop-color="#a855f7" stop-opacity="0.25"/>
      <stop offset="100%" stop-color="#a855f7" stop-opacity="0"/>
    </linearGradient>
    <filter id="shadow5">
      <feDropShadow dx="0" dy="3" stdDeviation="6" flood-color="#9333ea" flood-opacity="0.12"/>
    </filter>
  </defs>
  <rect width="300" height="160" rx="10" fill="url(#bg5)"/>
  <circle cx="270" cy="22" r="35" fill="#e9d5ff" fill-opacity="0.5"/>
  <circle cx="18" cy="148" r="24" fill="#d8b4fe" fill-opacity="0.3"/>
  <rect x="30" y="20" width="240" height="120" rx="12" fill="white" filter="url(#shadow5)" stroke="#f3e8ff" stroke-width="1"/>
  <line x1="50" y1="58" x2="255" y2="58" stroke="#f3e8ff" stroke-width="1"/>
  <line x1="50" y1="76" x2="255" y2="76" stroke="#f3e8ff" stroke-width="1"/>
  <line x1="50" y1="94" x2="255" y2="94" stroke="#f3e8ff" stroke-width="1"/>
  <line x1="50" y1="112" x2="255" y2="112" stroke="#f3e8ff" stroke-width="1"/>
  <rect x="34" y="55" width="12" height="3" rx="1.5" fill="#e9d5ff"/>
  <rect x="34" y="73" width="12" height="3" rx="1.5" fill="#e9d5ff"/>
  <rect x="34" y="91" width="12" height="3" rx="1.5" fill="#e9d5ff"/>
  <path d="M50 100 C80 90 100 75 130 65 C155 57 175 72 205 60 C225 52 240 68 255 55 L255 115 L50 115 Z" fill="url(#area5)"/>
  <path d="M50 100 C80 90 100 75 130 65 C155 57 175 72 205 60 C225 52 240 68 255 55" stroke="url(#line5)" stroke-width="2.5" stroke-linecap="round" stroke-linejoin="round" fill="none"/>
  <circle cx="50" cy="100" r="3.5" fill="white" stroke="#a855f7" stroke-width="2"/>
  <circle cx="130" cy="65" r="3.5" fill="white" stroke="#a855f7" stroke-width="2"/>
  <circle cx="205" cy="60" r="3.5" fill="white" stroke="#ec4899" stroke-width="2"/>
  <circle cx="255" cy="55" r="4.5" fill="#a855f7" stroke="white" stroke-width="2"/>
  <rect x="225" y="34" width="44" height="18" rx="5" fill="#7e22ce"/>
  <rect x="243" y="52" width="3" height="5" rx="1.5" fill="#7e22ce"/>
  <rect x="234" y="40" width="22" height="4" rx="2" fill="white" fill-opacity="0.9"/>
  <rect x="40" y="26" width="55" height="18" rx="9" fill="#fdf4ff" stroke="#e9d5ff" stroke-width="1"/>
  <rect x="44" y="31.5" width="12" height="6" rx="3" fill="#a855f7" fill-opacity="0.6"/>
  <rect x="60" y="33" width="28" height="3.5" rx="1.75" fill="#d8b4fe"/>
  <rect x="104" y="26" width="55" height="18" rx="9" fill="#fdf4ff" stroke="#e9d5ff" stroke-width="1"/>
  <rect x="108" y="31.5" width="12" height="6" rx="3" fill="#ec4899" fill-opacity="0.6"/>
  <rect x="124" y="33" width="28" height="3.5" rx="1.75" fill="#fbcfe8"/>
</svg>
