<svg viewBox="0 0 300 160" fill="none" xmlns="http://www.w3.org/2000/svg">
  <defs>
    <linearGradient id="bg2" x1="0" y1="0" x2="300" y2="160" gradientUnits="userSpaceOnUse">
      <stop offset="0%" stop-color="#f0fdf4"/>
      <stop offset="100%" stop-color="#dcfce7"/>
    </linearGradient>
    <filter id="shadow2">
      <feDropShadow dx="0" dy="4" stdDeviation="8" flood-color="#16a34a" flood-opacity="0.12"/>
    </filter>
  </defs>
  <rect width="300" height="160" rx="10" fill="url(#bg2)"/>
  <circle cx="270" cy="25" r="35" fill="#bbf7d0" fill-opacity="0.5"/>
  <circle cx="20" cy="145" r="25" fill="#86efac" fill-opacity="0.3"/>
  <rect x="70" y="22" width="140" height="116" rx="10" fill="white" filter="url(#shadow2)" stroke="#d1fae5" stroke-width="1"/>
  <rect x="70" y="22" width="140" height="28" rx="10" fill="#16a34a" fill-opacity="0.9"/>
  <rect x="70" y="36" width="140" height="14" rx="0" fill="#16a34a" fill-opacity="0.9"/>
  <rect x="84" y="30" width="44" height="5" rx="2.5" fill="white" fill-opacity="0.9"/>
  <rect x="172" y="30" width="24" height="5" rx="2.5" fill="white" fill-opacity="0.6"/>
  <rect x="84" y="62" width="70" height="4" rx="2" fill="#d1fae5"/>
  <rect x="192" y="62" width="30" height="4" rx="2" fill="#86efac"/>
  <rect x="84" y="74" width="55" height="4" rx="2" fill="#d1fae5"/>
  <rect x="192" y="74" width="30" height="4" rx="2" fill="#86efac"/>
  <rect x="84" y="86" width="64" height="4" rx="2" fill="#d1fae5"/>
  <rect x="192" y="86" width="30" height="4" rx="2" fill="#86efac"/>
  <rect x="84" y="100" width="138" height="1" fill="#d1fae5"/>
  <rect x="84" y="108" width="40" height="5" rx="2.5" fill="#16a34a" fill-opacity="0.5"/>
  <rect x="180" y="107" width="42" height="7" rx="3.5" fill="#16a34a" fill-opacity="0.8"/>
  <circle cx="222" cy="50" r="14" fill="#16a34a"/>
  <path d="M215 50 L228 50 M223 44 L229 50 L223 56" stroke="white" stroke-width="2" stroke-linecap="round" stroke-linejoin="round"/>
</svg>
