<svg viewBox="0 0 300 160" fill="none" xmlns="http://www.w3.org/2000/svg">
  <defs>
    <linearGradient id="bg3" x1="0" y1="0" x2="300" y2="160" gradientUnits="userSpaceOnUse">
      <stop offset="0%" stop-color="#fff7ed"/>
      <stop offset="100%" stop-color="#ffedd5"/>
    </linearGradient>
    <filter id="shadow3">
      <feDropShadow dx="0" dy="3" stdDeviation="7" flood-color="#ea580c" flood-opacity="0.13"/>
    </filter>
  </defs>
  <rect width="300" height="160" rx="10" fill="url(#bg3)"/>
  <circle cx="270" cy="20" r="38" fill="#fed7aa" fill-opacity="0.45"/>
  <circle cx="15" cy="148" r="28" fill="#fdba74" fill-opacity="0.3"/>
  <rect x="48" y="25" width="65" height="110" rx="8" fill="white" filter="url(#shadow3)" stroke="#fed7aa" stroke-width="1"/>
  <rect x="118" y="25" width="65" height="110" rx="8" fill="white" filter="url(#shadow3)" stroke="#fed7aa" stroke-width="1"/>
  <rect x="188" y="25" width="65" height="110" rx="8" fill="white" filter="url(#shadow3)" stroke="#fed7aa" stroke-width="1"/>
  <rect x="54" y="32" width="53" height="6" rx="3" fill="#fed7aa"/>
  <rect x="124" y="32" width="53" height="6" rx="3" fill="#fdba74"/>
  <rect x="194" y="32" width="53" height="6" rx="3" fill="#fb923c"/>
  <rect x="54" y="46" width="53" height="22" rx="5" fill="#fff7ed" stroke="#fed7aa" stroke-width="1"/>
  <rect x="58" y="51" width="35" height="3.5" rx="1.75" fill="#fed7aa"/>
  <rect x="58" y="58" width="25" height="3" rx="1.5" fill="#ffedd5"/>
  <rect x="54" y="74" width="53" height="22" rx="5" fill="#fff7ed" stroke="#fed7aa" stroke-width="1"/>
  <rect x="58" y="79" width="40" height="3.5" rx="1.75" fill="#fed7aa"/>
  <rect x="58" y="86" width="20" height="3" rx="1.5" fill="#ffedd5"/>
  <rect x="124" y="46" width="53" height="22" rx="5" fill="#fff7ed" stroke="#fdba74" stroke-width="1"/>
  <rect x="128" y="51" width="30" height="3.5" rx="1.75" fill="#fdba74"/>
  <rect x="128" y="58" width="22" height="3" rx="1.5" fill="#ffedd5"/>
  <rect x="194" y="46" width="53" height="22" rx="5" fill="#fff7ed" stroke="#fb923c" stroke-width="1"/>
  <rect x="198" y="51" width="35" height="3.5" rx="1.75" fill="#fb923c" fill-opacity="0.5"/>
  <circle cx="237" cy="62" r="5" fill="#ea580c" fill-opacity="0.2"/>
  <path d="M234 62 L236.5 64.5 L240 60" stroke="#ea580c" stroke-width="1.5" stroke-linecap="round" stroke-linejoin="round"/>
</svg>
