<svg viewBox="0 0 300 160" fill="none" xmlns="http://www.w3.org/2000/svg">
  <defs>
    <linearGradient id="bg4" x1="0" y1="0" x2="300" y2="160" gradientUnits="userSpaceOnUse">
      <stop offset="0%" stop-color="#eff6ff"/>
      <stop offset="100%" stop-color="#dbeafe"/>
    </linearGradient>
    <filter id="shadow4">
      <feDropShadow dx="0" dy="3" stdDeviation="7" flood-color="#2563eb" flood-opacity="0.12"/>
    </filter>
  </defs>
  <rect width="300" height="160" rx="10" fill="url(#bg4)"/>
  <circle cx="265" cy="18" r="36" fill="#bfdbfe" fill-opacity="0.45"/>
  <circle cx="18" cy="150" r="26" fill="#93c5fd" fill-opacity="0.3"/>
  <circle cx="100" cy="82" r="52" fill="white" filter="url(#shadow4)" stroke="#dbeafe" stroke-width="1.5"/>
  <circle cx="100" cy="82" r="44" fill="#eff6ff"/>
  <line x1="100" y1="42" x2="100" y2="48" stroke="#93c5fd" stroke-width="2" stroke-linecap="round"/>
  <line x1="100" y1="116" x2="100" y2="122" stroke="#93c5fd" stroke-width="2" stroke-linecap="round"/>
  <line x1="56" y1="82" x2="62" y2="82" stroke="#93c5fd" stroke-width="2" stroke-linecap="round"/>
  <line x1="138" y1="82" x2="144" y2="82" stroke="#93c5fd" stroke-width="2" stroke-linecap="round"/>
  <line x1="100" y1="82" x2="100" y2="58" stroke="#1d4ed8" stroke-width="3" stroke-linecap="round"/>
  <line x1="100" y1="82" x2="120" y2="72" stroke="#2563eb" stroke-width="2.5" stroke-linecap="round"/>
  <circle cx="100" cy="82" r="4" fill="#1d4ed8"/>
  <circle cx="100" cy="82" r="38" fill="none" stroke="#bfdbfe" stroke-width="5"/>
  <circle cx="100" cy="82" r="38" fill="none" stroke="#3b82f6" stroke-width="5" stroke-dasharray="143 95" stroke-dashoffset="60" stroke-linecap="round"/>
  <rect x="168" y="36" width="110" height="88" rx="10" fill="white" filter="url(#shadow4)" stroke="#dbeafe" stroke-width="1"/>
  <rect x="178" y="48" width="50" height="4" rx="2" fill="#bfdbfe"/>
  <rect x="178" y="56" width="80" height="6" rx="3" fill="#3b82f6" fill-opacity="0.3"/>
  <rect x="178" y="56" width="52" height="6" rx="3" fill="#3b82f6"/>
  <rect x="178" y="70" width="50" height="4" rx="2" fill="#bfdbfe"/>
  <rect x="178" y="78" width="80" height="6" rx="3" fill="#93c5fd" fill-opacity="0.3"/>
  <rect x="178" y="78" width="35" height="6" rx="3" fill="#60a5fa"/>
  <rect x="178" y="92" width="50" height="4" rx="2" fill="#bfdbfe"/>
  <rect x="178" y="100" width="80" height="6" rx="3" fill="#bfdbfe" fill-opacity="0.4"/>
  <rect x="178" y="100" width="65" height="6" rx="3" fill="#93c5fd"/>
</svg>
