<svg viewBox="0 0 300 160" fill="none" xmlns="http://www.w3.org/2000/svg">
  <defs>
    <linearGradient id="bg7" x1="0" y1="0" x2="300" y2="160" gradientUnits="userSpaceOnUse">
      <stop offset="0%" stop-color="#fffbeb"/>
      <stop offset="100%" stop-color="#fef3c7"/>
    </linearGradient>
    <linearGradient id="doc7" x1="80" y1="20" x2="200" y2="140" gradientUnits="userSpaceOnUse">
      <stop offset="0%" stop-color="#ffffff"/>
      <stop offset="100%" stop-color="#fffbeb"/>
    </linearGradient>
    <filter id="shadow7">
      <feDropShadow dx="0" dy="4" stdDeviation="8" flood-color="#d97706" flood-opacity="0.15"/>
    </filter>
  </defs>
  <rect width="300" height="160" rx="10" fill="url(#bg7)"/>
  <circle cx="262" cy="18" r="36" fill="#fde68a" fill-opacity="0.45"/>
  <circle cx="16" cy="148" r="26" fill="#fcd34d" fill-opacity="0.3"/>
  <rect x="60" y="20" width="130" height="118" rx="10" fill="url(#doc7)" filter="url(#shadow7)" stroke="#fde68a" stroke-width="1"/>
  <rect x="60" y="20" width="130" height="30" rx="10" fill="#f59e0b"/>
  <rect x="60" y="36" width="130" height="14" rx="0" fill="#f59e0b"/>
  <rect x="72" y="29" width="40" height="5" rx="2.5" fill="white" fill-opacity="0.95"/>
  <rect x="154" y="30" width="22" height="4" rx="2" fill="white" fill-opacity="0.55"/>
  <rect x="72" y="62" width="55" height="4" rx="2" fill="#fde68a"/>
  <rect x="160" y="62" width="22" height="4" rx="2" fill="#fcd34d"/>
  <rect x="72" y="74" width="45" height="4" rx="2" fill="#fde68a"/>
  <rect x="160" y="74" width="22" height="4" rx="2" fill="#fcd34d"/>
  <rect x="72" y="86" width="60" height="4" rx="2" fill="#fde68a"/>
  <rect x="160" y="86" width="22" height="4" rx="2" fill="#fcd34d"/>
  <rect x="72" y="100" width="110" height="1" fill="#fde68a"/>
  <rect x="72" y="108" width="30" height="4" rx="2" fill="#d97706" fill-opacity="0.5"/>
  <rect x="148" y="106" width="34" height="8" rx="4" fill="#d97706" fill-opacity="0.85"/>
  <circle cx="224" cy="80" r="36" fill="white" filter="url(#shadow7)" stroke="#fde68a" stroke-width="1"/>
  <path d="M230 52 L214 80 L224 80 L218 108 L238 76 L226 76 Z" fill="#f59e0b"/>
  <line x1="196" y1="65" x2="204" y2="65" stroke="#fcd34d" stroke-width="2" stroke-linecap="round"/>
  <line x1="192" y1="73" x2="202" y2="73" stroke="#fde68a" stroke-width="1.5" stroke-linecap="round"/>
  <line x1="195" y1="81" x2="203" y2="81" stroke="#fcd34d" stroke-width="1.5" stroke-linecap="round"/>
  <line x1="196" y1="95" x2="204" y2="95" stroke="#fde68a" stroke-width="1.5" stroke-linecap="round"/>
</svg>
