<svg viewBox="0 0 300 160" fill="none" xmlns="http://www.w3.org/2000/svg">
  <defs>
    <linearGradient id="bg6" x1="0" y1="0" x2="300" y2="160" gradientUnits="userSpaceOnUse">
      <stop offset="0%" stop-color="#f0fdfa"/>
      <stop offset="100%" stop-color="#ccfbf1"/>
    </linearGradient>
    <filter id="shadow6">
      <feDropShadow dx="0" dy="3" stdDeviation="7" flood-color="#0d9488" flood-opacity="0.12"/>
    </filter>
  </defs>
  <rect width="300" height="160" rx="10" fill="url(#bg6)"/>
  <circle cx="265" cy="20" r="35" fill="#99f6e4" fill-opacity="0.45"/>
  <circle cx="18" cy="148" r="26" fill="#5eead4" fill-opacity="0.28"/>
  <circle cx="80" cy="72" r="28" fill="white" filter="url(#shadow6)" stroke="#ccfbf1" stroke-width="1.5"/>
  <circle cx="80" cy="64" r="10" fill="#0d9488" fill-opacity="0.8"/>
  <path d="M58 90 Q58 79 80 79 Q102 79 102 90" fill="#0d9488" fill-opacity="0.4"/>
  <circle cx="150" cy="72" r="28" fill="white" filter="url(#shadow6)" stroke="#ccfbf1" stroke-width="1.5"/>
  <circle cx="150" cy="64" r="10" fill="#0891b2" fill-opacity="0.8"/>
  <path d="M128 90 Q128 79 150 79 Q172 79 172 90" fill="#0891b2" fill-opacity="0.4"/>
  <circle cx="220" cy="72" r="28" fill="white" filter="url(#shadow6)" stroke="#ccfbf1" stroke-width="1.5"/>
  <circle cx="220" cy="64" r="10" fill="#0d9488" fill-opacity="0.6"/>
  <path d="M198 90 Q198 79 220 79 Q242 79 242 90" fill="#0d9488" fill-opacity="0.3"/>
  <rect x="54" y="107" width="52" height="16" rx="8" fill="white" stroke="#99f6e4" stroke-width="1"/>
  <rect x="58" y="113" width="30" height="4" rx="2" fill="#5eead4"/>
  <rect x="90" y="113" width="10" height="4" rx="2" fill="#99f6e4"/>
  <rect x="124" y="107" width="52" height="16" rx="8" fill="white" stroke="#99f6e4" stroke-width="1"/>
  <rect x="128" y="113" width="30" height="4" rx="2" fill="#5eead4"/>
  <rect x="160" y="113" width="10" height="4" rx="2" fill="#99f6e4"/>
  <rect x="194" y="107" width="52" height="16" rx="8" fill="white" stroke="#99f6e4" stroke-width="1"/>
  <rect x="198" y="113" width="30" height="4" rx="2" fill="#5eead4"/>
  <rect x="230" y="113" width="10" height="4" rx="2" fill="#99f6e4"/>
  <rect x="56" y="32" width="48" height="14" rx="7" fill="#0d9488"/>
  <rect x="60" y="36.5" width="30" height="4" rx="2" fill="white" fill-opacity="0.85"/>
  <rect x="126" y="32" width="48" height="14" rx="7" fill="#0891b2"/>
  <rect x="130" y="36.5" width="30" height="4" rx="2" fill="white" fill-opacity="0.85"/>
  <rect x="196" y="32" width="48" height="14" rx="7" fill="#f0fdfa" stroke="#5eead4" stroke-width="1" stroke-dasharray="3 2"/>
  <rect x="213" y="37.5" width="14" height="3" rx="1.5" fill="#0d9488"/>
  <rect x="219" y="34" width="2" height="10" rx="1" fill="#0d9488"/>
</svg>
